
<svg id="visual" viewBox="0 0 900 450" width="900" height="450" xmlns="http://www.w3.org/2000/svg" xmlns:xlink="http://www.w3.org/1999/xlink" version="1.1"><rect x="0" y="0" width="900" height="450" fill="#F2F2F2"></rect><path d="M0 281L21.5 280C43 279 86 277 128.8 282C171.7 287 214.3 299 257.2 303.3C300 307.7 343 304.3 385.8 308.3C428.7 312.3 471.3 323.7 514.2 328C557 332.3 600 329.7 642.8 325.5C685.7 321.3 728.3 315.7 771.2 310.3C814 305 857 300 878.5 297.5L900 295L900 451L878.5 451C857 451 814 451 771.2 451C728.3 451 685.7 451 642.8 451C600 451 557 451 514.2 451C471.3 451 428.7 451 385.8 451C343 451 300 451 257.2 451C214.3 451 171.7 451 128.8 451C86 451 43 451 21.5 451L0 451Z" fill="#d0c6b8"></path><path d="M0 302L21.5 308.7C43 315.3 86 328.7 128.8 336.5C171.7 344.3 214.3 346.7 257.2 344.7C300 342.7 343 336.3 385.8 335.5C428.7 334.7 471.3 339.3 514.2 339.8C557 340.3 600 336.7 642.8 329.8C685.7 323 728.3 313 771.2 313.3C814 313.7 857 324.3 878.5 329.7L900 335L900 451L878.5 451C857 451 814 451 771.2 451C728.3 451 685.7 451 642.8 451C600 451 557 451 514.2 451C471.3 451 428.7 451 385.8 451C343 451 300 451 257.2 451C214.3 451 171.7 451 128.8 451C86 451 43 451 21.5 451L0 451Z" fill="#bdc4b1"></path><path d="M0 363L21.5 358.5C43 354 86 345 128.8 341.3C171.7 337.7 214.3 339.3 257.2 340.8C300 342.3 343 343.7 385.8 342.8C428.7 342 471.3 339 514.2 344.3C557 349.7 600 363.3 642.8 370.2C685.7 377 728.3 377 771.2 371.7C814 366.3 857 355.7 878.5 350.3L900 345L900 451L878.5 451C857 451 814 451 771.2 451C728.3 451 685.7 451 642.8 451C600 451 557 451 514.2 451C471.3 451 428.7 451 385.8 451C343 451 300 451 257.2 451C214.3 451 171.7 451 128.8 451C86 451 43 451 21.5 451L0 451Z" fill="#a6c1b5"></path><path d="M0 373L21.5 377.2C43 381.3 86 389.7 128.8 388.3C171.7 387 214.3 376 257.2 375.7C300 375.3 343 385.7 385.8 391.3C428.7 397 471.3 398 514.2 394.8C557 391.7 600 384.3 642.8 382.5C685.7 380.7 728.3 384.3 771.2 387.8C814 391.3 857 394.7 878.5 396.3L900 398L900 451L878.5 451C857 451 814 451 771.2 451C728.3 451 685.7 451 642.8 451C600 451 557 451 514.2 451C471.3 451 428.7 451 385.8 451C343 451 300 451 257.2 451C214.3 451 171.7 451 128.8 451C86 451 43 451 21.5 451L0 451Z" fill="#95bbbf"></path><path d="M0 413L21.5 412.3C43 411.7 86 410.3 128.8 410C171.7 409.7 214.3 410.3 257.2 409.7C300 409 343 407 385.8 404.3C428.7 401.7 471.3 398.3 514.2 401.3C557 404.3 600 413.7 642.8 414C685.7 414.3 728.3 405.7 771.2 404.2C814 402.7 857 408.3 878.5 411.2L900 414L900 451L878.5 451C857 451 814 451 771.2 451C728.3 451 685.7 451 642.8 451C600 451 557 451 514.2 451C471.3 451 428.7 451 385.8 451C343 451 300 451 257.2 451C214.3 451 171.7 451 128.8 451C86 451 43 451 21.5 451L0 451Z" fill="#94b2c7"></path></svg>